{"title":"Chappie.2015.720p.BRRip.XviD.AC3-RARBG","uid":11973019,"size":4042447359,"categoryP":"video","categoryS":"hd___movies","magnet":"?xt=urn:btih:faf68f4035574b68ad085b75a7968f9820c4ebd3&amp;dn=Chappie.2015.720p.BRRip.XviD.AC3-RARBG&amp;tr=udp%3A%2F%2Ftracker.openbittorrent.com%3A80&amp;tr=udp%3A%2F%2Fopen.demonii.com%3A1337&amp;tr=udp%3A%2F%2Ftracker.coppersurfer.tk%3A6969&amp;tr=udp%3A%2F%2Fexodus.desync.com%3A6969","seeders":0,"leechers":1,"uploader":"vickey1992","files":7,"time":1432908052,"description":"Video\nID                                       : 0\nFormat                                   : MPEG-4 Visual\nFormat profile                           : Simple@L5\nFormat settings, BVOP                    : No\nFormat settings, QPel                    : No\nFormat settings, GMC                     : No warppoints\nFormat settings, Matrix                  : Default (H.263)\nCodec ID                                 : XVID\nCodec ID/Hint                            : XviD\nDuration                                 : 2h 0mn\nBit rate                                 : 3 785 Kbps\nWidth                                    : 1 280 pixels\nHeight                                   : 536 pixels\nDisplay aspect ratio                     : 2.40:1\nFrame rate                               : 23.976 fps\nColor space                              : YUV\nChroma subsampling                       : 4:2:0\nBit depth                                : 8 bits\nScan type                                : Progressive\nCompression mode                         : Lossy\nBits/(Pixel*Frame)                       : 0.230\nStream size                              : 3.18 GiB (85%)\nWriting library                          : Lavc56.19.100\n\nAudio\nID                                       : 1\nFormat                                   : AC-3\nFormat/Info                              : Audio Coding 3\nMode extension                           : CM (complete main)\nFormat settings, Endianness              : Big\nCodec ID                                 : 2000\nDuration                                 : 2h 0mn\nBit rate mode                            : Constant\nBit rate                                 : 640 Kbps\nChannel(s)                               : 6 channels\nChannel positions                        : Front: L C R, Side: L R, LFE\nSampling rate                            : 48.0 KHz\nBit depth                                : 16 bits\nCompression mode                         : Lossy\nStream size                              : 551 MiB (14%)\nAlignment                                : Aligned on interleaves\nInterleave, duration                     : 42 ms (1.00 video frame)\nInterleave, preload duration             : 512 ms","torrent":{"xt":"urn:btih:faf68f4035574b68ad085b75a7968f9820c4ebd3","amp;dn":"Chappie.2015.720p.BRRip.XviD.AC3-RARBG","amp;tr":["udp%3A%2F%2Ftracker.openbittorrent.com%3A80","udp%3A%2F%2Fopen.demonii.com%3A1337","udp%3A%2F%2Ftracker.coppersurfer.tk%3A6969","udp%3A%2F%2Fexodus.desync.com%3A6969"],"infoHash":"faf68f4035574b68ad085b75a7968f9820c4ebd3","infoHashBuffer":{"type":"Buffer","data":[250,246,143,64,53,87,75,104,173,8,91,117,167,150,143,152,32,196,235,211]},"announce":[],"urlList":[]}}